<?xml version="1.0" encoding="UTF-8"?>
<svg xmlns="http://www.w3.org/2000/svg" version="1.1" viewBox="0 0 459 216">
  <defs>
    <style>
      .cls-1 {
        fill: #14192f;
      }

      .cls-2 {
        fill: #fff;
      }

      .cls-3 {
        fill: #c58f12;
      }
    </style>
  </defs>
  <!-- Generator: Adobe Illustrator 28.7.1, SVG Export Plug-In . SVG Version: 1.2.0 Build 142)  -->
  <g>
    <g id="Layer_1">
      <g>
        <path class="cls-1" d="M-830.23,70.86h9.68v72.3h-9.68v-72.3Z"/>
        <path class="cls-1" d="M-725.12,120.75l-.8-.59h.8c10.76-2.67,18.46-11.75,19.15-22.41h-9.68c-.69,8.79-7.11,15.2-15.89,15.2s-15.2-6.61-15.89-15.2h-9.77c.59,10.66,8.29,19.84,19.25,22.41h.8l-.8.59c-10.96,2.57-18.66,11.75-19.25,22.41h9.77c.69-8.59,7.11-15.2,15.89-15.2s15.2,6.42,15.89,15.2h9.68c-.69-10.66-8.39-19.74-19.15-22.41Z"/>
        <path class="cls-1" d="M-785.98,137.18c-2.15,0-4.2-.43-6.08-1.21-2.87-1.1-5.22-2.98-6.91-5.41-1.34-1.82-2.33-3.92-2.86-6.21h23.44v-7.78h-23.41c.55-2.3,1.56-4.42,2.93-6.24,2.22-3.12,5.52-5.33,9.47-6.12,1.11-.24,2.25-.37,3.43-.37,1.88,0,3.68.33,5.36.93,3.45,1.17,6.25,3.44,8.1,6.34,1.08,1.62,1.89,3.45,2.36,5.41h9.46c-1.78-11.55-12.14-20.73-25.37-20.73-14.71,0-25.57,11.25-25.57,24.68s10.86,24.68,25.57,24.68c13.53,0,23.6-9.38,25.37-20.73h-9.44c-1.72,7.33-8.16,12.77-15.84,12.77Z"/>
        <path class="cls-3" d="M-654.12,109.23c6.14,0,11.23,5.08,11.23,11.23s-5.08,11.23-11.23,11.23-11.23-5.08-11.23-11.23,5.08-11.23,11.23-11.23Z"/>
        <g>
          <rect class="cls-1" x="-697.04" y="97.75" width="9.67" height="45.41"/>
          <path class="cls-1" d="M-636.44,99.09v3.52c-4.6-4.23-10.82-6.83-17.68-6.83-14.15,0-25.62,11.05-25.62,24.68s11.47,24.68,25.62,24.68c6.86,0,13.08-2.6,17.68-6.83v4.86h9.67v-44.07h-9.67ZM-654.12,137.12c-9.07,0-16.42-7.46-16.42-16.66s7.35-16.66,16.42-16.66,16.42,7.46,16.42,16.66-7.35,16.66-16.42,16.66Z"/>
          <path class="cls-1" d="M-692.2,84.92c-2.86,0-5.23,2.37-5.23,5.23s2.37,5.23,5.23,5.23,5.23-2.37,5.23-5.23-2.37-5.23-5.23-5.23Z"/>
        </g>
      </g>
      <g>
        <path class="cls-2" d="M127.77,70.86h9.68v72.3h-9.68v-72.3Z"/>
        <path class="cls-2" d="M232.88,120.75l-.8-.59h.8c10.76-2.67,18.46-11.75,19.15-22.41h-9.68c-.69,8.79-7.11,15.2-15.89,15.2s-15.2-6.61-15.89-15.2h-9.77c.59,10.66,8.29,19.84,19.25,22.41h.8l-.8.59c-10.96,2.57-18.66,11.75-19.25,22.41h9.77c.69-8.59,7.11-15.2,15.89-15.2s15.2,6.42,15.89,15.2h9.68c-.69-10.66-8.39-19.74-19.15-22.41Z"/>
        <path class="cls-2" d="M172.02,137.18c-2.15,0-4.2-.43-6.08-1.21-2.87-1.1-5.22-2.98-6.91-5.41-1.34-1.82-2.33-3.92-2.86-6.21h23.44v-7.78h-23.41c.55-2.3,1.56-4.42,2.93-6.24,2.22-3.12,5.52-5.33,9.47-6.12,1.11-.24,2.25-.37,3.43-.37,1.88,0,3.68.33,5.36.93,3.45,1.17,6.25,3.44,8.1,6.34,1.08,1.62,1.89,3.45,2.36,5.41h9.46c-1.78-11.55-12.14-20.73-25.37-20.73-14.71,0-25.57,11.25-25.57,24.68s10.86,24.68,25.57,24.68c13.53,0,23.6-9.38,25.37-20.73h-9.44c-1.72,7.33-8.16,12.77-15.84,12.77Z"/>
        <path class="cls-2" d="M303.88,109.23c6.14,0,11.23,5.08,11.23,11.23s-5.08,11.23-11.23,11.23-11.23-5.08-11.23-11.23,5.08-11.23,11.23-11.23Z"/>
        <g>
          <rect class="cls-2" x="260.96" y="97.75" width="9.67" height="45.41"/>
          <path class="cls-2" d="M321.56,99.09v3.52c-4.6-4.23-10.82-6.83-17.68-6.83-14.15,0-25.62,11.05-25.62,24.68s11.47,24.68,25.62,24.68c6.86,0,13.08-2.6,17.68-6.83v4.86h9.67v-44.07h-9.67ZM303.88,137.12c-9.07,0-16.42-7.46-16.42-16.66s7.35-16.66,16.42-16.66,16.42,7.46,16.42,16.66-7.35,16.66-16.42,16.66Z"/>
          <path class="cls-2" d="M265.8,84.92c-2.86,0-5.23,2.37-5.23,5.23s2.37,5.23,5.23,5.23,5.23-2.37,5.23-5.23-2.37-5.23-5.23-5.23Z"/>
        </g>
      </g>
      <g>
        <path d="M-351.23,70.86h9.68v72.3h-9.68v-72.3Z"/>
        <path d="M-246.12,120.75l-.8-.59h.8c10.76-2.67,18.46-11.75,19.15-22.41h-9.68c-.69,8.79-7.11,15.2-15.89,15.2s-15.2-6.61-15.89-15.2h-9.77c.59,10.66,8.29,19.84,19.25,22.41h.8l-.8.59c-10.96,2.57-18.66,11.75-19.25,22.41h9.77c.69-8.59,7.11-15.2,15.89-15.2s15.2,6.42,15.89,15.2h9.68c-.69-10.66-8.39-19.74-19.15-22.41Z"/>
        <path d="M-306.98,137.18c-2.15,0-4.2-.43-6.08-1.21-2.87-1.1-5.22-2.98-6.91-5.41-1.34-1.82-2.33-3.92-2.86-6.21h23.44v-7.78h-23.41c.55-2.3,1.56-4.42,2.93-6.24,2.22-3.12,5.52-5.33,9.47-6.12,1.11-.24,2.25-.37,3.43-.37,1.88,0,3.68.33,5.36.93,3.45,1.17,6.25,3.44,8.1,6.34,1.08,1.62,1.89,3.45,2.36,5.41h9.46c-1.78-11.55-12.14-20.73-25.37-20.73-14.71,0-25.57,11.25-25.57,24.68s10.86,24.68,25.57,24.68c13.53,0,23.6-9.38,25.37-20.73h-9.44c-1.72,7.33-8.16,12.77-15.84,12.77Z"/>
        <path d="M-175.12,109.23c6.14,0,11.23,5.08,11.23,11.23s-5.08,11.23-11.23,11.23-11.23-5.08-11.23-11.23,5.08-11.23,11.23-11.23Z"/>
        <g>
          <rect x="-218.04" y="97.75" width="9.67" height="45.41"/>
          <path d="M-157.44,99.09v3.52c-4.6-4.23-10.82-6.83-17.68-6.83-14.15,0-25.62,11.05-25.62,24.68s11.47,24.68,25.62,24.68c6.86,0,13.08-2.6,17.68-6.83v4.86h9.67v-44.07h-9.67ZM-175.12,137.12c-9.07,0-16.42-7.46-16.42-16.66s7.35-16.66,16.42-16.66,16.42,7.46,16.42,16.66-7.35,16.66-16.42,16.66Z"/>
          <path d="M-213.2,84.92c-2.86,0-5.23,2.37-5.23,5.23s2.37,5.23,5.23,5.23,5.23-2.37,5.23-5.23-2.37-5.23-5.23-5.23Z"/>
        </g>
      </g>
    </g>
  </g>
</svg>